<mxfile host="app.diagrams.net" agent="Mozilla/5.0 (Windows NT 10.0; Win64; x64) AppleWebKit/537.36 (KHTML, like Gecko) Chrome/137.0.0.0 Safari/537.36 Edg/137.0.0.0" version="27.1.6">
  <diagram name="第 1 页" id="HM4v7N0mDzMXFB3K-6UH">
    <mxGraphModel dx="2245" dy="756" grid="1" gridSize="10" guides="1" tooltips="1" connect="1" arrows="1" fold="1" page="1" pageScale="1" pageWidth="827" pageHeight="1169" math="0" shadow="0">
      <root>
        <mxCell id="0" />
        <mxCell id="1" parent="0" />
        <mxCell id="2" value="开始" style="whiteSpace=wrap;strokeWidth=2;" parent="1" vertex="1">
          <mxGeometry x="40" y="8" width="92" height="54" as="geometry" />
        </mxCell>
        <mxCell id="3" value="解锁订单" style="whiteSpace=wrap;strokeWidth=2;" parent="1" vertex="1">
          <mxGeometry x="24" y="112" width="124" height="54" as="geometry" />
        </mxCell>
        <mxCell id="Zip4rRXPBhCjQxjV0t5G-72" value="" style="edgeStyle=orthogonalEdgeStyle;rounded=0;orthogonalLoop=1;jettySize=auto;html=1;" edge="1" parent="1" source="4" target="Zip4rRXPBhCjQxjV0t5G-71">
          <mxGeometry relative="1" as="geometry" />
        </mxCell>
        <mxCell id="4" value="核价" style="whiteSpace=wrap;strokeWidth=2;" parent="1" vertex="1">
          <mxGeometry x="40" y="216" width="92" height="54" as="geometry" />
        </mxCell>
        <mxCell id="6" value="开卡" style="whiteSpace=wrap;strokeWidth=2;" parent="1" vertex="1">
          <mxGeometry x="132" y="653" width="92" height="54" as="geometry" />
        </mxCell>
        <mxCell id="7" value="申请改签" style="whiteSpace=wrap;strokeWidth=2;" parent="1" vertex="1">
          <mxGeometry x="116" y="784" width="124" height="54" as="geometry" />
        </mxCell>
        <mxCell id="Zip4rRXPBhCjQxjV0t5G-94" value="" style="edgeStyle=orthogonalEdgeStyle;rounded=0;orthogonalLoop=1;jettySize=auto;html=1;" edge="1" parent="1" source="8" target="Zip4rRXPBhCjQxjV0t5G-93">
          <mxGeometry relative="1" as="geometry" />
        </mxCell>
        <mxCell id="8" value="改签结果" style="whiteSpace=wrap;strokeWidth=2;" parent="1" vertex="1">
          <mxGeometry x="116" y="890" width="124" height="54" as="geometry" />
        </mxCell>
        <mxCell id="15" value="" style="curved=1;startArrow=none;endArrow=block;exitX=0.5;exitY=1;entryX=0.5;entryY=0;" parent="1" source="2" target="3" edge="1">
          <mxGeometry relative="1" as="geometry">
            <Array as="points" />
          </mxGeometry>
        </mxCell>
        <mxCell id="16" value="" style="curved=1;startArrow=none;endArrow=block;exitX=0.5;exitY=1;entryX=0.5;entryY=0;" parent="1" source="3" target="4" edge="1">
          <mxGeometry relative="1" as="geometry">
            <Array as="points" />
          </mxGeometry>
        </mxCell>
        <mxCell id="19" value="" style="curved=1;startArrow=none;endArrow=block;exitX=0.5;exitY=1;entryX=0.5;entryY=0;" parent="1" source="6" target="7" edge="1">
          <mxGeometry relative="1" as="geometry">
            <Array as="points" />
          </mxGeometry>
        </mxCell>
        <mxCell id="20" value="" style="curved=1;startArrow=none;endArrow=block;exitX=0.5;exitY=1;entryX=0.5;entryY=0;" parent="1" source="7" target="8" edge="1">
          <mxGeometry relative="1" as="geometry">
            <Array as="points" />
          </mxGeometry>
        </mxCell>
        <mxCell id="Zip4rRXPBhCjQxjV0t5G-26" value="开始" style="whiteSpace=wrap;strokeWidth=2;" vertex="1" parent="1">
          <mxGeometry x="918" y="38" width="92" height="54" as="geometry" />
        </mxCell>
        <mxCell id="Zip4rRXPBhCjQxjV0t5G-51" value="" style="edgeStyle=orthogonalEdgeStyle;rounded=0;orthogonalLoop=1;jettySize=auto;html=1;" edge="1" parent="1" source="Zip4rRXPBhCjQxjV0t5G-27" target="Zip4rRXPBhCjQxjV0t5G-31">
          <mxGeometry relative="1" as="geometry" />
        </mxCell>
        <mxCell id="Zip4rRXPBhCjQxjV0t5G-27" value="解锁订单" style="whiteSpace=wrap;strokeWidth=2;" vertex="1" parent="1">
          <mxGeometry x="902" y="142" width="124" height="54" as="geometry" />
        </mxCell>
        <mxCell id="Zip4rRXPBhCjQxjV0t5G-92" style="edgeStyle=orthogonalEdgeStyle;rounded=0;orthogonalLoop=1;jettySize=auto;html=1;" edge="1" parent="1" source="Zip4rRXPBhCjQxjV0t5G-31" target="Zip4rRXPBhCjQxjV0t5G-53">
          <mxGeometry relative="1" as="geometry" />
        </mxCell>
        <mxCell id="Zip4rRXPBhCjQxjV0t5G-31" value="申请改签" style="whiteSpace=wrap;strokeWidth=2;" vertex="1" parent="1">
          <mxGeometry x="902" y="270" width="124" height="54" as="geometry" />
        </mxCell>
        <mxCell id="Zip4rRXPBhCjQxjV0t5G-57" value="" style="edgeStyle=orthogonalEdgeStyle;rounded=0;orthogonalLoop=1;jettySize=auto;html=1;" edge="1" parent="1" source="Zip4rRXPBhCjQxjV0t5G-33" target="Zip4rRXPBhCjQxjV0t5G-34">
          <mxGeometry relative="1" as="geometry" />
        </mxCell>
        <mxCell id="Zip4rRXPBhCjQxjV0t5G-33" value="改签升舱失败" style="whiteSpace=wrap;strokeWidth=2;" vertex="1" parent="1">
          <mxGeometry x="720" y="490" width="156" height="54" as="geometry" />
        </mxCell>
        <mxCell id="Zip4rRXPBhCjQxjV0t5G-58" value="" style="edgeStyle=orthogonalEdgeStyle;rounded=0;orthogonalLoop=1;jettySize=auto;html=1;" edge="1" parent="1" source="Zip4rRXPBhCjQxjV0t5G-34" target="Zip4rRXPBhCjQxjV0t5G-35">
          <mxGeometry relative="1" as="geometry" />
        </mxCell>
        <mxCell id="Zip4rRXPBhCjQxjV0t5G-34" value="反馈平台" style="whiteSpace=wrap;strokeWidth=2;" vertex="1" parent="1">
          <mxGeometry x="736" y="380" width="124" height="54" as="geometry" />
        </mxCell>
        <mxCell id="Zip4rRXPBhCjQxjV0t5G-59" value="" style="edgeStyle=orthogonalEdgeStyle;rounded=0;orthogonalLoop=1;jettySize=auto;html=1;" edge="1" parent="1" source="Zip4rRXPBhCjQxjV0t5G-35" target="Zip4rRXPBhCjQxjV0t5G-31">
          <mxGeometry relative="1" as="geometry" />
        </mxCell>
        <mxCell id="Zip4rRXPBhCjQxjV0t5G-35" value="强制改签" style="whiteSpace=wrap;strokeWidth=2;" vertex="1" parent="1">
          <mxGeometry x="736" y="270" width="124" height="54" as="geometry" />
        </mxCell>
        <mxCell id="Zip4rRXPBhCjQxjV0t5G-37" value="同步平台确认改签接口" style="whiteSpace=wrap;strokeWidth=2;" vertex="1" parent="1">
          <mxGeometry x="910" y="760" width="108" height="54" as="geometry" />
        </mxCell>
        <mxCell id="Zip4rRXPBhCjQxjV0t5G-38" value="结束" style="whiteSpace=wrap;strokeWidth=2;fillColor=#d5e8d4;strokeColor=#82b366;" vertex="1" parent="1">
          <mxGeometry x="918" y="887" width="92" height="54" as="geometry" />
        </mxCell>
        <mxCell id="Zip4rRXPBhCjQxjV0t5G-39" value="" style="curved=1;startArrow=none;endArrow=block;exitX=0.5;exitY=1;entryX=0.5;entryY=0;" edge="1" parent="1" source="Zip4rRXPBhCjQxjV0t5G-26" target="Zip4rRXPBhCjQxjV0t5G-27">
          <mxGeometry relative="1" as="geometry">
            <Array as="points" />
          </mxGeometry>
        </mxCell>
        <mxCell id="Zip4rRXPBhCjQxjV0t5G-50" value="" style="curved=1;startArrow=none;endArrow=block;exitX=0.5;exitY=1;entryX=0.5;entryY=0;" edge="1" parent="1" source="Zip4rRXPBhCjQxjV0t5G-37" target="Zip4rRXPBhCjQxjV0t5G-38">
          <mxGeometry relative="1" as="geometry">
            <Array as="points" />
          </mxGeometry>
        </mxCell>
        <mxCell id="Zip4rRXPBhCjQxjV0t5G-60" value="" style="edgeStyle=orthogonalEdgeStyle;rounded=0;orthogonalLoop=1;jettySize=auto;html=1;" edge="1" parent="1" source="Zip4rRXPBhCjQxjV0t5G-53" target="Zip4rRXPBhCjQxjV0t5G-37">
          <mxGeometry relative="1" as="geometry" />
        </mxCell>
        <mxCell id="Zip4rRXPBhCjQxjV0t5G-103" value="成功" style="edgeLabel;html=1;align=center;verticalAlign=middle;resizable=0;points=[];" vertex="1" connectable="0" parent="Zip4rRXPBhCjQxjV0t5G-60">
          <mxGeometry x="-0.5667" y="1" relative="1" as="geometry">
            <mxPoint as="offset" />
          </mxGeometry>
        </mxCell>
        <mxCell id="Zip4rRXPBhCjQxjV0t5G-62" value="" style="edgeStyle=orthogonalEdgeStyle;rounded=0;orthogonalLoop=1;jettySize=auto;html=1;" edge="1" parent="1" source="Zip4rRXPBhCjQxjV0t5G-53" target="Zip4rRXPBhCjQxjV0t5G-61">
          <mxGeometry relative="1" as="geometry" />
        </mxCell>
        <mxCell id="Zip4rRXPBhCjQxjV0t5G-102" value="失败" style="edgeLabel;html=1;align=center;verticalAlign=middle;resizable=0;points=[];" vertex="1" connectable="0" parent="Zip4rRXPBhCjQxjV0t5G-62">
          <mxGeometry x="-0.3256" relative="1" as="geometry">
            <mxPoint as="offset" />
          </mxGeometry>
        </mxCell>
        <mxCell id="Zip4rRXPBhCjQxjV0t5G-53" value="改签结果" style="rhombus;whiteSpace=wrap;html=1;strokeWidth=2;" vertex="1" parent="1">
          <mxGeometry x="924" y="620" width="80" height="80" as="geometry" />
        </mxCell>
        <mxCell id="Zip4rRXPBhCjQxjV0t5G-63" value="" style="edgeStyle=orthogonalEdgeStyle;rounded=0;orthogonalLoop=1;jettySize=auto;html=1;" edge="1" parent="1" source="Zip4rRXPBhCjQxjV0t5G-61" target="Zip4rRXPBhCjQxjV0t5G-33">
          <mxGeometry relative="1" as="geometry" />
        </mxCell>
        <mxCell id="Zip4rRXPBhCjQxjV0t5G-66" value="升舱失败" style="edgeLabel;html=1;align=center;verticalAlign=middle;resizable=0;points=[];" vertex="1" connectable="0" parent="Zip4rRXPBhCjQxjV0t5G-63">
          <mxGeometry x="-0.0417" y="1" relative="1" as="geometry">
            <mxPoint as="offset" />
          </mxGeometry>
        </mxCell>
        <mxCell id="Zip4rRXPBhCjQxjV0t5G-65" value="" style="edgeStyle=orthogonalEdgeStyle;rounded=0;orthogonalLoop=1;jettySize=auto;html=1;" edge="1" parent="1" source="Zip4rRXPBhCjQxjV0t5G-61" target="Zip4rRXPBhCjQxjV0t5G-64">
          <mxGeometry relative="1" as="geometry" />
        </mxCell>
        <mxCell id="Zip4rRXPBhCjQxjV0t5G-70" value="其它原因" style="edgeLabel;html=1;align=center;verticalAlign=middle;resizable=0;points=[];" vertex="1" connectable="0" parent="Zip4rRXPBhCjQxjV0t5G-65">
          <mxGeometry x="-0.1339" y="1" relative="1" as="geometry">
            <mxPoint as="offset" />
          </mxGeometry>
        </mxCell>
        <mxCell id="Zip4rRXPBhCjQxjV0t5G-61" value="失败原因" style="rhombus;whiteSpace=wrap;html=1;strokeWidth=2;" vertex="1" parent="1">
          <mxGeometry x="758" y="620" width="80" height="80" as="geometry" />
        </mxCell>
        <mxCell id="Zip4rRXPBhCjQxjV0t5G-64" value="人工介入" style="whiteSpace=wrap;html=1;strokeWidth=2;fillColor=#f8cecc;strokeColor=#b85450;" vertex="1" parent="1">
          <mxGeometry x="738" y="884" width="120" height="60" as="geometry" />
        </mxCell>
        <mxCell id="Zip4rRXPBhCjQxjV0t5G-73" value="" style="edgeStyle=orthogonalEdgeStyle;rounded=0;orthogonalLoop=1;jettySize=auto;html=1;" edge="1" parent="1" source="Zip4rRXPBhCjQxjV0t5G-71" target="6">
          <mxGeometry relative="1" as="geometry" />
        </mxCell>
        <mxCell id="Zip4rRXPBhCjQxjV0t5G-77" value="成功" style="edgeLabel;html=1;align=center;verticalAlign=middle;resizable=0;points=[];" vertex="1" connectable="0" parent="Zip4rRXPBhCjQxjV0t5G-73">
          <mxGeometry x="-0.3636" y="2" relative="1" as="geometry">
            <mxPoint as="offset" />
          </mxGeometry>
        </mxCell>
        <mxCell id="Zip4rRXPBhCjQxjV0t5G-81" value="" style="edgeStyle=orthogonalEdgeStyle;rounded=0;orthogonalLoop=1;jettySize=auto;html=1;" edge="1" parent="1" source="Zip4rRXPBhCjQxjV0t5G-71" target="Zip4rRXPBhCjQxjV0t5G-78">
          <mxGeometry relative="1" as="geometry" />
        </mxCell>
        <mxCell id="Zip4rRXPBhCjQxjV0t5G-106" value="失败" style="edgeLabel;html=1;align=center;verticalAlign=middle;resizable=0;points=[];" vertex="1" connectable="0" parent="Zip4rRXPBhCjQxjV0t5G-81">
          <mxGeometry x="0.0234" y="-2" relative="1" as="geometry">
            <mxPoint as="offset" />
          </mxGeometry>
        </mxCell>
        <mxCell id="Zip4rRXPBhCjQxjV0t5G-71" value="结果" style="rhombus;whiteSpace=wrap;html=1;strokeWidth=2;" vertex="1" parent="1">
          <mxGeometry x="46" y="300" width="80" height="80" as="geometry" />
        </mxCell>
        <mxCell id="Zip4rRXPBhCjQxjV0t5G-83" value="" style="edgeStyle=orthogonalEdgeStyle;rounded=0;orthogonalLoop=1;jettySize=auto;html=1;" edge="1" parent="1" source="Zip4rRXPBhCjQxjV0t5G-78" target="Zip4rRXPBhCjQxjV0t5G-82">
          <mxGeometry relative="1" as="geometry" />
        </mxCell>
        <mxCell id="Zip4rRXPBhCjQxjV0t5G-84" value="升舱" style="edgeLabel;html=1;align=center;verticalAlign=middle;resizable=0;points=[];" vertex="1" connectable="0" parent="Zip4rRXPBhCjQxjV0t5G-83">
          <mxGeometry x="-0.0789" y="-3" relative="1" as="geometry">
            <mxPoint as="offset" />
          </mxGeometry>
        </mxCell>
        <mxCell id="Zip4rRXPBhCjQxjV0t5G-107" style="edgeStyle=orthogonalEdgeStyle;rounded=0;orthogonalLoop=1;jettySize=auto;html=1;entryX=0;entryY=0.5;entryDx=0;entryDy=0;" edge="1" parent="1" source="Zip4rRXPBhCjQxjV0t5G-78" target="Zip4rRXPBhCjQxjV0t5G-95">
          <mxGeometry relative="1" as="geometry">
            <Array as="points">
              <mxPoint x="-210" y="480" />
              <mxPoint x="-210" y="1247" />
            </Array>
          </mxGeometry>
        </mxCell>
        <mxCell id="Zip4rRXPBhCjQxjV0t5G-108" value="其它原因" style="edgeLabel;html=1;align=center;verticalAlign=middle;resizable=0;points=[];" vertex="1" connectable="0" parent="Zip4rRXPBhCjQxjV0t5G-107">
          <mxGeometry x="-0.7502" relative="1" as="geometry">
            <mxPoint as="offset" />
          </mxGeometry>
        </mxCell>
        <mxCell id="Zip4rRXPBhCjQxjV0t5G-78" value="失败原因" style="rhombus;whiteSpace=wrap;html=1;strokeWidth=2;" vertex="1" parent="1">
          <mxGeometry x="-150" y="440" width="80" height="80" as="geometry" />
        </mxCell>
        <mxCell id="Zip4rRXPBhCjQxjV0t5G-86" value="" style="edgeStyle=orthogonalEdgeStyle;rounded=0;orthogonalLoop=1;jettySize=auto;html=1;" edge="1" parent="1" source="Zip4rRXPBhCjQxjV0t5G-82" target="Zip4rRXPBhCjQxjV0t5G-85">
          <mxGeometry relative="1" as="geometry" />
        </mxCell>
        <mxCell id="Zip4rRXPBhCjQxjV0t5G-82" value="反馈平台" style="whiteSpace=wrap;html=1;strokeWidth=2;" vertex="1" parent="1">
          <mxGeometry x="-50" y="552" width="120" height="60" as="geometry" />
        </mxCell>
        <mxCell id="Zip4rRXPBhCjQxjV0t5G-91" style="edgeStyle=orthogonalEdgeStyle;rounded=0;orthogonalLoop=1;jettySize=auto;html=1;entryX=0;entryY=0.5;entryDx=0;entryDy=0;" edge="1" parent="1" source="Zip4rRXPBhCjQxjV0t5G-85" target="6">
          <mxGeometry relative="1" as="geometry" />
        </mxCell>
        <mxCell id="Zip4rRXPBhCjQxjV0t5G-85" value="强制改签" style="whiteSpace=wrap;html=1;strokeWidth=2;" vertex="1" parent="1">
          <mxGeometry x="-50" y="650" width="120" height="60" as="geometry" />
        </mxCell>
        <mxCell id="Zip4rRXPBhCjQxjV0t5G-101" style="edgeStyle=orthogonalEdgeStyle;rounded=0;orthogonalLoop=1;jettySize=auto;html=1;entryX=0.5;entryY=0;entryDx=0;entryDy=0;" edge="1" parent="1" source="Zip4rRXPBhCjQxjV0t5G-93" target="Zip4rRXPBhCjQxjV0t5G-95">
          <mxGeometry relative="1" as="geometry" />
        </mxCell>
        <mxCell id="Zip4rRXPBhCjQxjV0t5G-105" value="失败" style="edgeLabel;html=1;align=center;verticalAlign=middle;resizable=0;points=[];" vertex="1" connectable="0" parent="Zip4rRXPBhCjQxjV0t5G-101">
          <mxGeometry x="0.0602" y="-3" relative="1" as="geometry">
            <mxPoint as="offset" />
          </mxGeometry>
        </mxCell>
        <mxCell id="Zip4rRXPBhCjQxjV0t5G-93" value="改签结果" style="rhombus;whiteSpace=wrap;html=1;strokeWidth=2;" vertex="1" parent="1">
          <mxGeometry x="138" y="1010" width="80" height="80" as="geometry" />
        </mxCell>
        <mxCell id="Zip4rRXPBhCjQxjV0t5G-95" value="人工介入" style="whiteSpace=wrap;html=1;strokeWidth=2;fillColor=#f8cecc;strokeColor=#b85450;" vertex="1" parent="1">
          <mxGeometry x="-4" y="1217" width="120" height="60" as="geometry" />
        </mxCell>
        <mxCell id="Zip4rRXPBhCjQxjV0t5G-97" value="同步平台确认改签接口" style="whiteSpace=wrap;strokeWidth=2;" vertex="1" parent="1">
          <mxGeometry x="226" y="1115" width="108" height="54" as="geometry" />
        </mxCell>
        <mxCell id="Zip4rRXPBhCjQxjV0t5G-98" value="结束" style="whiteSpace=wrap;strokeWidth=2;fillColor=#d5e8d4;strokeColor=#82b366;" vertex="1" parent="1">
          <mxGeometry x="234" y="1220" width="92" height="54" as="geometry" />
        </mxCell>
        <mxCell id="Zip4rRXPBhCjQxjV0t5G-99" value="" style="curved=1;startArrow=none;endArrow=block;exitX=0.5;exitY=1;entryX=0.5;entryY=0;" edge="1" parent="1" source="Zip4rRXPBhCjQxjV0t5G-97" target="Zip4rRXPBhCjQxjV0t5G-98">
          <mxGeometry relative="1" as="geometry">
            <Array as="points" />
          </mxGeometry>
        </mxCell>
        <mxCell id="Zip4rRXPBhCjQxjV0t5G-100" style="edgeStyle=orthogonalEdgeStyle;rounded=0;orthogonalLoop=1;jettySize=auto;html=1;entryX=0.444;entryY=-0.056;entryDx=0;entryDy=0;entryPerimeter=0;" edge="1" parent="1" source="Zip4rRXPBhCjQxjV0t5G-93" target="Zip4rRXPBhCjQxjV0t5G-97">
          <mxGeometry relative="1" as="geometry" />
        </mxCell>
        <mxCell id="Zip4rRXPBhCjQxjV0t5G-104" value="成功" style="edgeLabel;html=1;align=center;verticalAlign=middle;resizable=0;points=[];" vertex="1" connectable="0" parent="Zip4rRXPBhCjQxjV0t5G-100">
          <mxGeometry x="0.0342" y="-4" relative="1" as="geometry">
            <mxPoint as="offset" />
          </mxGeometry>
        </mxCell>
      </root>
    </mxGraphModel>
  </diagram>
</mxfile>
